<svg width="460" height="468" viewBox="0 0 460 468" fill="none" xmlns="http://www.w3.org/2000/svg">
<path d="M337.013 20.5879C287.798 20.5879 245.883 55.6053 230 104.627C214.117 55.6053 172.202 20.5879 122.987 20.5879C60.1234 20.5879 9.16406 77.7191 9.16406 148.194C9.16406 218.669 85.3534 300.898 122.987 340.149C149.459 367.758 230 448.123 230 448.123C230 448.123 310.541 367.758 337.013 340.148C374.647 300.898 450.836 218.668 450.836 148.194C450.836 77.7201 399.877 20.5879 337.013 20.5879Z" fill="url(#paint0_linear_277_3729)"/>
<path d="M314.555 326.766C312.082 326.766 309.618 325.651 307.81 323.45C304.384 319.276 304.623 312.776 308.347 308.935C309.92 307.311 311.375 305.802 312.695 304.427C316.4 300.561 322.199 300.796 325.646 304.95C329.093 309.104 328.884 315.605 325.179 319.47C323.838 320.869 322.359 322.402 320.76 324.052C318.998 325.868 316.773 326.766 314.555 326.766Z" fill="white"/>
<path d="M239.416 402.7C236.897 402.7 234.391 401.544 232.58 399.274C229.209 395.043 229.533 388.55 233.306 384.768C246.865 371.185 266.607 351.366 283.67 334.094C287.426 330.291 293.221 330.623 296.612 334.834C300.004 339.045 299.707 345.542 295.952 349.343C278.86 366.643 259.092 386.487 245.519 400.086C243.771 401.838 241.589 402.7 239.416 402.7Z" fill="white"/>
<path d="M230 458.396C227.823 458.396 225.644 457.53 223.909 455.797C223.102 454.993 142.988 375.041 116.746 347.671C66.6272 295.4 0 217.853 0 148.194C0 72.167 55.1712 10.314 122.987 10.314C167.613 10.314 208.42 37.6442 230 80.2088C251.58 37.6442 292.387 10.314 337.013 10.314C404.828 10.314 460 72.166 460 148.194C460 217.853 393.373 295.399 343.255 347.67C317.012 375.04 236.899 454.993 236.092 455.796C234.356 457.531 232.177 458.396 230 458.396ZM122.987 30.8605C65.2769 30.8605 18.3272 83.4964 18.3272 148.194C18.3272 176.334 32.0787 210.444 59.1998 249.578C84.2267 285.69 115.764 318.582 129.229 332.627C151.085 355.422 210.726 415.101 230.002 434.364C249.278 415.101 308.919 355.422 330.774 332.627C344.241 318.582 375.777 285.691 400.803 249.578C427.923 210.444 441.675 176.334 441.675 148.194C441.675 83.4954 394.724 30.8605 337.015 30.8605C293.133 30.8605 253.588 61.9144 238.614 108.133C237.298 112.195 233.857 114.899 230.002 114.899C226.147 114.899 222.705 112.195 221.389 108.133C206.412 61.9144 166.869 30.8605 122.987 30.8605Z" fill="#E25E3E"/>
<path d="M230 458.396C227.823 458.396 225.644 457.53 223.909 455.797C223.102 454.993 142.988 375.041 116.746 347.671C66.6272 295.4 0 217.853 0 148.194C0 72.167 55.1712 10.314 122.987 10.314C167.613 10.314 208.42 37.6442 230 80.2088C251.58 37.6442 292.387 10.314 337.013 10.314C404.828 10.314 460 72.166 460 148.194C460 217.853 393.373 295.399 343.255 347.67C317.012 375.04 236.899 454.993 236.092 455.796C234.356 457.531 232.177 458.396 230 458.396ZM122.987 30.8605C65.2769 30.8605 18.3272 83.4964 18.3272 148.194C18.3272 176.334 32.0787 210.444 59.1998 249.578C84.2267 285.69 115.764 318.582 129.229 332.627C151.085 355.422 210.726 415.101 230.002 434.364C249.278 415.101 308.919 355.422 330.774 332.627C344.241 318.582 375.777 285.691 400.803 249.578C427.923 210.444 441.675 176.334 441.675 148.194C441.675 83.4954 394.724 30.8605 337.015 30.8605C293.133 30.8605 253.588 61.9144 238.614 108.133C237.298 112.195 233.857 114.899 230.002 114.899C226.147 114.899 222.705 112.195 221.389 108.133C206.412 61.9144 166.869 30.8605 122.987 30.8605Z" fill="#9D44C0"/>
<defs>
<linearGradient id="paint0_linear_277_3729" x1="49" y1="-64" x2="339.5" y2="325.5" gradientUnits="userSpaceOnUse">
<stop stop-color="#BC7AF9"/>
<stop offset="0.434825" stop-color="#BC7AF9"/>
<stop offset="0.999495" stop-color="#E6CDFD"/>
</linearGradient>
</defs>
</svg>
